<svg xmlns="http://www.w3.org/2000/svg" version="1" width="150" height="150"><defs><filter x="0" y="0" width="2" height="2" color-interpolation-filters="sRGB" id="e"><feGaussianBlur result="blur" stdDeviation="14" in="SourceAlpha"/><feColorMatrix values="1 0 0 0 0 0 1 0 0 0 0 0 1 0 0 0 0 0 0.405 0" result="bluralpha"/><feOffset result="offsetBlur" dy="4" dx="4" in="bluralpha"/><feMerge><feMergeNode in="offsetBlur"/><feMergeNode in="SourceGraphic"/></feMerge></filter><filter x="0" y="0" width="2" height="2" color-interpolation-filters="sRGB" id="d"><feGaussianBlur result="blur" stdDeviation="14" in="SourceAlpha"/><feColorMatrix values="1 0 0 0 0 0 1 0 0 0 0 0 1 0 0 0 0 0 0.405 0" result="bluralpha"/><feOffset result="offsetBlur" dy="4" dx="4" in="bluralpha"/><feMerge><feMergeNode in="offsetBlur"/><feMergeNode in="SourceGraphic"/></feMerge></filter><filter x="0" y="0" width="2" height="2" color-interpolation-filters="sRGB" id="c"><feGaussianBlur result="blur" stdDeviation="14" in="SourceAlpha"/><feColorMatrix values="1 0 0 0 0 0 1 0 0 0 0 0 1 0 0 0 0 0 0.405 0" result="bluralpha"/><feOffset result="offsetBlur" dy="4" dx="4" in="bluralpha"/><feMerge><feMergeNode in="offsetBlur"/><feMergeNode in="SourceGraphic"/></feMerge></filter><filter x="0" y="0" width="2" height="2" color-interpolation-filters="sRGB" id="b"><feGaussianBlur result="blur" stdDeviation="14" in="SourceAlpha"/><feColorMatrix values="1 0 0 0 0 0 1 0 0 0 0 0 1 0 0 0 0 0 0.405 0" result="bluralpha"/><feOffset result="offsetBlur" dy="4" dx="4" in="bluralpha"/><feMerge><feMergeNode in="offsetBlur"/><feMergeNode in="SourceGraphic"/></feMerge></filter><filter x="0" y="0" width="2" height="2" color-interpolation-filters="sRGB" id="f"><feGaussianBlur result="blur" stdDeviation="14" in="SourceAlpha"/><feColorMatrix values="1 0 0 0 0 0 1 0 0 0 0 0 1 0 0 0 0 0 0.405 0" result="bluralpha"/><feOffset result="offsetBlur" dy="4" dx="4" in="bluralpha"/><feMerge><feMergeNode in="offsetBlur"/><feMergeNode in="SourceGraphic"/></feMerge></filter><filter x="0" y="0" width="2" height="2" color-interpolation-filters="sRGB" id="a"><feGaussianBlur result="blur" stdDeviation="14" in="SourceAlpha"/><feColorMatrix values="1 0 0 0 0 0 1 0 0 0 0 0 1 0 0 0 0 0 0.405 0" result="bluralpha"/><feOffset result="offsetBlur" dy="4" dx="4" in="bluralpha"/><feMerge><feMergeNode in="offsetBlur"/><feMergeNode in="SourceGraphic"/></feMerge></filter></defs><g fill="#fff"><path d="M322-24c-11-7-17-12-24-23-22-37-2-93 37-107 17-5 44-5 86 1l22 4 2-11c4-17 7-49 8-72 4-105-27-231-85-351l-11-23-7 2a1351 1351 0 0 1-274 63c-41 6-45 7 102-32a1125 1125 0 0 0 166-54 539 539 0 0 0-184-182c-20-10-25-14-23-24 2-7 11-13 19-11 12 2 37 20 83 58 60 50 65 62 107 110l26 36 24-14c88-51 147-110 198-209 12-24 15-28 21-30 17-4 33 24 40 70 9 60 2 160-16 223a611 611 0 0 1-36 97l26-14c112-66 152-84 200-90 23-2 39-1 46 4 13 11 7 25-31 70a689 689 0 0 0-119 189c-7 22-16 75-15 94 0 26 8 66 12 67l24-12-9-9c-8-6-10-9-12-17-3-8-2-10 1-23 7-29 23-42 76-64 39-15 51-21 69-34 15-11 25-23 36-42 8-15 15-42 14-57-1-30-13-49-35-54-18-3-36 5-50 23-7 9-7 10-12 33-4 20-5 23-8 25-6 4-14 2-18-4-2-4-2-7 0-19 3-23 14-39 38-56 14-10 33-16 50-16 19-1 38 10 49 27 14 20 15 36 7 74-4 21-5 28-4 34 3 21 3 32-3 66-6 36-10 49-24 77-20 42-41 67-74 88-23 16-37 20-53 18-26-4-34-16-33-51l1-6-12 6-12 9a180 180 0 0 0 78 80 457 457 0 0 0 145 58 525 525 0 0 1-123-35c-2-2-2-2-7 10-5 10-19 20-32 23-9 2-12 2-24 0-9-2-17-5-22-8-9-5-20-20-28-36l-5-11-2 8c-2 5-5 8-8 11-5 3-7 3-21 1-18-2-21-4-25-18-3-9 1-28 7-40l4-9-15 5a330 330 0 0 1-163 16l-25-4-5 14c-12 27-32 52-55 68a83 83 0 0 1-45 18c-13 0-24-2-35-8zm50-35c11-3 20-9 30-18 16-15 35-42 32-44-6-3-27-10-39-12-17-4-26-3-36 5-11 9-18 20-22 36s-3 23 4 28c6 5 23 7 31 5zm410 17c8-5 15-19 15-33 0-4-2-6-19-20-21-16-37-33-50-53-10-13-11-14-20-6-4 3-4 3-1 11 4 17 22 59 30 72 9 13 15 20 24 26 6 4 17 5 21 3zm-91-39c6-4 9-11 9-21 0-8-8-33-10-34l-7 9c-8 12-13 34-9 41 2 4 6 7 10 8 1 1 4-1 7-3zm-145-51c37 2 71-2 100-11 22-8 33-13 33-17 1-3-21-39-26-44-6-4-9-4-14-1s-6 5-8 16c-2 13-3 13-8 17-14 7-26-6-23-24 5-21 26-33 46-26 14 5 23 14 37 35l13 21 6-4 7-4-3-9c-14-39-16-79-6-125 14-69 43-130 121-252 9-13 15-24 15-25-3-4-51 8-81 19-47 17-105 50-167 95-14 11-27 20-30 20-5 2-11-3-12-9-2-7 5-35 14-66a857 857 0 0 0 32-254l-24 26c-50 62-87 91-157 124l-22 12c-1 1 5 12 12 24 48 83 83 181 88 252 4 47 6 76-8 145l-11 54 28 5 48 6zm251-61c9-2 38-23 49-34 20-21 41-56 48-79l3-10-4 4-10 11c-10 11-24 22-61 48-20 14-39 29-42 33-8 9-11 21-7 25 3 3 16 4 24 2z" filter="url(#a)" transform="matrix(.14827 0 0 .14827 -2 142)"/><path d="M51-921c-2 0-3 2-3 4V18c0 2 2 4 3 4h936c2 0 4-2 4-4v-935c0-2-2-4-4-4H51zm9 12h919V9L58 12z" style="text-indent:0;text-align:start;line-height:normal;text-transform:none;block-progression:tb;marker:none;-inkscape-font-specification:Sans" font-weight="400" color="#000" overflow="visible" filter="url(#b)" enable-background="accumulate" font-family="Sans" transform="matrix(.14827 0 0 .14827 -2 142)"/><path d="M894-944c-21 2-44-3-64 6-10 1-22-4-30 4-4 4-2 10-1 15 2-5 5-12 11-12 5-2 13 1 11 8-1 11 9 19 19 22 11 5 21 14 33 15 11 2 21-1 31-5 9-3 18 1 26 5 9 3 19 3 27-2-6 10-2 23 1 33 2 6 6 14 2 21-4 13-8 28-1 41 8 12 11 26 20 37 5 5 14 3 21 6 3 8-2 16-8 22 7 4 14-3 15-9 3-11-2-22 3-32 5-23 3-45 3-68-1-14-6-27-13-39 0-11 8-20 9-31 2-10 3-22-5-29-13-8-29-3-42 1-9 5-20 6-28-1-12-6-26-9-40-8zm6 7c13 1 25 5 37 11 2 2-3 2-5 2-5 0-7-5-12-6l-21-7h1zm-41 0c6-1 7 1 1 3-6 5-12 1-18 0 5-2 11-3 17-3zm22 3c13 1 26 7 39 12 2 1 3 2 0 3-12 6-28 7-39-2-5-3-12-3-16-7 4-4 10-6 16-6zm106 0c5 1 12 1 14 7 1 3 4 10-1 12-5-4-13-7-14-14-1-2-1-5 1-5zm-154 6l9 2c6 1 7 7 3 10 0 7-7 5-10 2-6-1-8-13-2-14zm133 1c-2 3-3 7-7 6-2 0-8-2-4-3 4 0 8-3 11-3zm8 1l6 3c-3 1-7 2-9 0l3-3zm-117 6c8 0 13 6 20 9 7 2-2 1-5 2-7 1-15 3-21-1 0-4 1-10 6-10zm87 1l6 2c-2 2-7 0-7-2h1zm29 5c4 0 11 0 11 6 0 5-6 11-11 6-2-2-5-8-2-12h2zm-38 0c2 0 4 2 2 3l-17 5c-2 0-7 2-8 0 6-6 16-5 23-8zm57 4c3 1 5 8 0 9v-9zm-43 5c4-1 10 5 7 9-6 5-15 2-22 0-2 0-6-1-6-3l15-5 6-1zm-56 5l6 1c-10 3-21 3-31 1l25-2zm72 4c1 2-2 3-3 3l3-3zm32 1c1 1-3 4-3 5 0 2-1 8-3 4-2-3-2-6 1-7l5-2zm-29 8c7 1 7 11 5 16-1 4-3 9-6 12 0-7-6-11-5-17 1-4 2-11 6-11zm18 7l2 6c-2-1-4-5-2-6zm-4 12c2 9-2 19-7 25-1-4 2-9 2-13 1-4 2-10 5-12zm14 0c5 11 9 23 10 35-4-9-6-19-12-26-1-3 0-7 2-9zm-6 16c6 12 10 25 13 37 0 7 0 16-6 20-3-9-7-17-12-25-3-6-3-13 0-19 1-4 2-9 5-13zm-21 24c2 10-1 20-2 30-1-10-1-21 2-31v1zm10 18c4 8 12 16 9 25-1 4-8 6-10 2 0-9-1-19 1-27zm27 15c2 7-1 16-2 23-2-6-5-13 0-19l2-4zm-14 17c4 1 3 7 4 10-1 3 2 6 1 9-7 1-18-5-15-14 2-4 6-4 10-5z" filter="url(#c)" transform="matrix(.14827 0 0 .14827 -2 142)"/><path d="M995-173c-6 0-2 3 1 6 4 5 5 12 3 18-8 2-19 0-24 8-6 12-11 25-18 36-5 15-1 31 4 44 1 10-6 18-7 28-2 6-1 16 2 21-11-7-24-4-35 2-8 4-18 2-27-3-15-5-32-1-45 9-10 6-25 9-28 22-1 5 2 11-4 13-7 2-16-1-17-10-3-6-2 4-3 7 0 8 9 11 16 10 8 1 16-1 23 3 20 5 40 1 60 3 15 0 31-3 43-11 13-5 24 4 37 6 9 2 22 3 29-5 8-11 3-25 0-37-2-8-7-15-5-22 10-17 14-36 13-56-1-19 1-38-6-57-1-11 4-25-5-33-2-1-5-3-7-2zm0 32c4 0 0 5 0 7-1 4 1 10-3 12-5 0-10-2-11-7-1-7 7-11 14-12zm8 13c1 8 5 16 3 24-3-6-7-11-5-17l2-7zm-22 9c5-1 9 6 7 11l-9 18c-3-9-2-19-1-27l3-2zm16 14c6 4 6 13 6 20-4 13-7 26-14 37l-7-21c0-12 10-21 13-32l2-4zm-30 6c1 9 3 19 1 27-3-9-3-20-1-30v3zm38 34c-1 11-4 23-10 33-3-4-2-10 2-13l8-22v2zm-30 8c5 7 8 17 6 25-5-6-4-16-7-23 0 0 0-3 1-2zm-8 17c5 7 9 17 5 25-2 4-7 3-8-1-3-6-3-14 1-19 1-1 1-6 2-5zm20 14l-2 6c-2-2 2-6 2-6zm5 11c2 3 2 6 5 9-1 2-5 0-6-1-4-2-2-6 1-8zm-30 8c2 0 3 2 3 3l-3-3zm3 3c-2 0-5-6-2-2l2 2zm-19-3c3 0 12 1 10 7s-10 6-15 4c-4-3-10-3-14-5 3-4 9-2 12-5l7-1zm-65 4l17 2c-10 3-20-1-30-1l13-1zm96 3c7 0 9 13 1 13-4 2-11 2-9-4 1-4 3-9 8-9zm15 1c5 1 2 9-1 9l1-9zm-77 4c7 1 13 4 20 6 2 0 4 3 1 3l-16-4c-3-1-7-1-8-4l3-1zm-55 3l20 2-20 10c-4 2-10-2-9-7-2-6 5-5 9-5zm-19 3c4 0 3 6 6 8 1 6-6 8-10 7-2 3-8 3-8-1-1-5 2-10 7-12l5-2zm58 3c8 0 17 3 23 6-10 6-21 9-31 12-9 3-20 3-27-4 7-5 15-5 21-10 5-3 9-4 14-4zm101 1c4 1 2 8 1 11-2 5-6 7-10 7-3 1-8 1-6-3 1-7 8-11 13-14l2-1zm-52 1c2 0 3 1 0 2h-6c1-2 4-2 6-2zm11 5c4-1 5 4 6 7l-12-5 6-2zm14 1c1 1 7 0 6 1-2 3-9 4-8 0l2-1zm-41 2c2 0 8 1 4 3-12 5-24 10-37 10 9-4 21-5 29-12l4-1zm-80 8c5 0 9 3 13 5-8 1-18-1-24-3l11-2z" filter="url(#d)" transform="matrix(.14827 0 0 .14827 -2 142)"/><path d="M40-173c-9 1-11 13-10 22 1 7 0 15-3 21-4 22-2 45-2 67 1 14 6 27 13 39-1 11-8 21-9 32-2 10-3 22 6 29 12 7 27 2 40-2 9-4 21-6 28 1 16 8 35 10 52 8 18 0 36 1 53-6 9-1 21 3 29-3 5-5 2-11 2-17-2 6-5 13-11 13-6 2-13-1-12-8 2-11-8-18-17-22-12-4-21-13-33-15-11-2-22 0-32 5-9 3-19-1-27-5-8-3-19-3-26 2 6-10 2-23-1-33-3-6-7-14-2-21 4-13 8-28 1-41-8-12-11-26-20-37-6-5-14-3-21-6-3-8 2-16 8-22-2-1-4-2-6-1zm2 32c7 0 16 6 13 14-1 4-7 5-11 5-3-6-2-12-4-18l2-1zm-8 13c1 6 5 13 0 18-1 1-3 8-3 4-1-7 2-16 3-22zm22 9c5 0 3 7 4 10 0 6 0 13-2 19-3-8-12-16-9-25 2-3 4-4 7-4zm-15 14c2 9 7 18 12 27 3 6 1 13-1 19l-4 11c-7-11-10-25-14-38 0-6 1-15 7-19zm29 4c2 10 2 20-1 30-2-10 0-21 1-31v1zM33-62c3 7 6 15 10 21 1 3 1 7-1 9-6-11-9-23-10-35l1 5zm30 5c1 5-3 10-3 14-1 3-1 9-5 10-1-8 2-18 8-24zm7 17c1 6 6 10 5 16 0 4-1 12-6 11-8-3-6-13-3-19l4-8zM50-26c1 1 4 6 1 6-1-2-2-5-1-6zm-5 11c3 2 5 7 1 8-1 1-7 3-5 1 2-3 2-7 4-9zm30 8c-1 0-2 4-3 3 0-2 2-3 3-3zm16 0c6 0 11 3 17 4 4 2-1 4-3 4-7 0-15 8-21 2-4-2-5-7 0-8 2-2 5-2 7-2zm65 4l13 1c-10 0-20 4-30 1l17-2zM60 0c6 0 9 8 7 13-3 2-7 0-10 0-6-3-2-13 3-13zM45 1v9c-3-2-5-8 0-9zm77 4c2 0 5 1 2 2-6 4-15 4-22 7-2 0-4-2-1-3l14-4 7-2zm55 3c4 0 11-1 9 5 1 5-4 9-9 7l-20-10 20-2zm19 3c4 1 8 3 11 6 2 3 2 11-3 11l-9-2c-5-1-6-7-3-10 0-2 1-5 4-5zm-58 3c8-1 15 5 22 8 4 2 10 3 13 6-9 8-22 6-32 2-9-3-19-5-26-10 7-3 15-6 23-6zM38 15c4 4 11 6 13 13 3 3 1 7-3 6s-9-2-11-6-4-10 0-13h1zm51 1c2 0 6 1 5 3l-7-2 2-1zm-11 5c1 0 7 1 5 2-4 1-8 4-11 4 2-2 2-6 6-6zm-15 1c3-1 5 1 2 3-2 1-7 0-7-2l5-1zm41 2c6 0 9 6 15 6l19 7c-13-1-26-5-37-11-3-1 3-2 3-2zm80 8l12 2c-8 3-16 4-24 3 4-2 8-5 12-5z" filter="url(#e)" transform="matrix(.14827 0 0 .14827 -2 142)"/><path d="M139-944c-14 0-28 3-40 11-13 5-24-4-37-6-10-2-23-3-30 6-7 11-2 25 1 37 2 7 7 14 5 21a92 92 0 0 0-13 55c0 19-1 39 5 57 2 12-3 26 6 34 3 2 7 3 11 1-6-6-11-14-8-23 8-2 19 0 24-9 6-11 11-24 18-35 5-15 0-31-4-45 0-10 6-18 7-28 1-7 2-14-2-20 10 7 24 4 34-2 10-4 20-1 28 3 15 4 32 0 45-9 10-6 25-9 28-22 1-5-2-11 4-13 7-3 16 1 17 9 2 7 2-3 3-6 0-8-9-11-16-11-8 0-16 2-23-2-20-5-41-1-60-4h-3zm-1 7c-9 4-20 5-28 12-3 1-7 1-9-1 6-5 14-6 22-9l16-2h-1zm40 0c6-1 14 1 19 3-6 1-13 4-19 0-2-1-7-4-1-3h1zm-20 3c5 0 11 2 15 6-6 5-14 5-20 10-12 7-27 4-37-3 10-5 21-8 31-11l11-2zm-107 0c4 0 2 6 0 8-2 5-9 8-13 11-4-2-2-9 0-12 2-6 8-6 13-7zm154 6c5 0 5 8 3 11-3 3-7 4-10 5-5 1-4-5-7-7-1-6 6-8 10-7l4-2zm-132 0l12 5c-3 3-10 3-11-2l-1-3zm-9 2c3 0 5 5 1 4l-6-1c1-2 3-3 5-3zm117 6c5-1 8 7 6 11-10 3-20-1-29-1l20-10h3zm-87 1c4 0-1 3-2 3-2 0-6-1-2-2l4-1zm-29 5c5-1 4 6 2 9-1 6-10 6-11 0-3-4 0-10 5-9h4zm38 0c8 3 17 2 23 7 1 2-5 1-6 1l-17-5c-2 0-4-3-1-3h1zm-56 4l-1 9c-5-1-3-8 1-9zm42 5c7 0 14 4 21 5 2 2-3 3-4 3-7 2-14 6-21 3-4-1-5-6-2-8l6-3zm56 4l25 3c-10 2-22 1-30-2l5-1zm-72 5c1 0 5 5 2 3l-2-3zm-30 1c3 1 9 4 5 8-1 2-3 3-3-1l-4-7h2zm28 7c5 3 6 12 5 17-2 4-5 7-5 11-5-6-9-17-5-25 1-1 3-3 5-3zm-18 7c2 2-2 7-2 7 0-2 0-5 2-7zm-10 13c3 4 2 10-2 13l-8 21c1-11 4-23 10-34zm13 0c6 6 5 15 8 22 1 3-2 3-3 0-4-6-6-15-5-22zm-7 16l7 21c0 12-10 21-13 32-1 2-2 6-4 2-5-9-5-20 0-30 2-8 5-18 10-25zm21 23c3 10 2 21 1 31-1-10-4-21-1-31zm-11 19c3 9 2 18 1 27-4 4-11-1-10-6 0-8 6-15 9-21zm-27 14c3 6 7 11 4 17l-1 7c-1-8-5-16-3-24zm14 18c5 0 10 2 11 7 0 8-9 12-15 11-1-2 1-5 1-8 1-3 0-9 3-10z" filter="url(#f)" transform="matrix(.14827 0 0 .14827 -2 142)"/></g></svg>